<?xml version="1.0" standalone="no"?>
<!DOCTYPE svg PUBLIC "-//W3C//DTD SVG 20010904//EN"
 "http://www.w3.org/TR/2001/REC-SVG-20010904/DTD/svg10.dtd">
<svg version="1.0" xmlns="http://www.w3.org/2000/svg"
 width="227.000000pt" height="220.000000pt" viewBox="0 0 227.000000 220.000000"
 preserveAspectRatio="xMidYMid meet">
<metadata>
Created by potrace 1.16, written by Peter Selinger 2001-2019
</metadata>
<g transform="translate(0.000000,220.000000) scale(0.100000,-0.100000)"
fill="#000000" stroke="none">
<path d="M828 1563 c-38 -16 -46 -34 -28 -63 7 -12 14 -12 43 -2 46 16 48 16
37 -14 -6 -14 -10 -41 -10 -60 0 -29 -3 -34 -23 -34 -13 0 -31 -8 -40 -18 -15
-16 -17 -53 -17 -313 0 -167 4 -300 10 -309 7 -11 35 -16 102 -20 l93 -5 -117
-47 c-155 -63 -170 -63 -196 7 -6 17 -59 152 -118 300 -150 380 -138 342 -103
354 32 11 39 40 14 64 -11 12 -12 22 -4 45 6 17 9 47 7 69 -3 36 -5 38 -38 41
-28 2 -45 -6 -84 -35 -65 -50 -74 -65 -57 -97 12 -21 12 -33 1 -73 -7 -26 -17
-52 -21 -58 -12 -12 -11 0 2 66 13 64 2 100 -36 125 -41 27 -71 10 -118 -66
-53 -86 -77 -150 -77 -205 0 -26 -11 -71 -25 -105 -22 -51 -25 -74 -25 -167 1
-168 25 -373 49 -422 50 -97 186 -170 464 -247 70 -19 99 -43 135 -109 l27
-50 222 -3 221 -2 9 52 9 53 7 -52 8 -53 222 0 222 0 29 55 c36 69 61 90 134
110 146 40 203 60 281 97 103 49 184 125 199 184 15 60 32 277 32 395 0 92 -3
114 -25 163 -14 33 -25 75 -25 101 0 57 -32 141 -81 216 -47 70 -74 81 -119
49 l-32 -22 -31 29 c-58 54 -95 74 -129 71 -28 -3 -34 -7 -36 -32 -6 -53 8
-93 49 -140 23 -26 64 -92 93 -148 48 -96 76 -130 76 -94 0 9 5 16 10 16 7 0
10 -35 9 -92 -3 -157 -4 -153 39 -165 l37 -11 -45 5 c-79 9 -126 -12 -205 -87
-133 -128 -189 -155 -385 -190 -148 -26 -226 -63 -280 -132 -22 -27 -43 -61
-46 -75 l-7 -25 -13 31 c-30 71 -115 151 -177 167 -38 9 -34 16 21 38 26 11
70 29 97 41 103 46 118 49 153 31 39 -20 104 -21 142 -1 19 10 43 13 72 9 33
-5 47 -2 57 10 10 12 32 16 86 16 111 0 105 -18 105 332 0 354 10 328 -133
328 -107 0 -103 -3 -109 80 l-3 35 -130 3 c-123 3 -131 2 -147 -19 -37 -44
-27 -49 97 -49 88 0 115 -3 115 -13 0 -30 -25 -37 -133 -37 -104 0 -108 1
-102 20 8 24 -22 29 -31 5 -9 -23 -26 -18 -22 7 2 13 11 24 23 27 23 4 35 19
35 44 0 14 -9 17 -54 17 l-55 0 -3 -52 c-2 -29 -7 -53 -13 -53 -5 0 -23 33
-39 73 -23 59 -31 70 -42 61 -12 -9 -14 -7 -12 12 3 20 -2 24 -27 26 -16 1
-47 -6 -67 -14z m-330 -575 c67 -172 122 -316 122 -321 0 -23 -112 57 -204
146 -71 69 -99 81 -181 82 -63 0 -66 1 -33 9 32 8 38 14 43 47 4 20 2 53 -3
72 -6 20 -8 37 -6 39 10 11 14 80 6 114 -6 28 -5 49 5 73 8 18 16 31 19 28 3
-2 0 -16 -7 -30 -14 -31 -3 -117 14 -117 12 0 87 137 87 159 0 41 30 -25 138
-301z m984 79 l3 -232 -31 3 c-18 2 -35 -1 -38 -7 -5 -7 -54 -11 -137 -11
l-129 0 0 53 c-1 28 -7 69 -14 90 l-14 37 34 0 34 0 0 -50 0 -50 60 0 60 0 0
50 0 50 50 0 50 0 0 60 0 60 -50 0 -50 0 0 55 0 56 -57 -3 -58 -3 -3 -52 -3
-53 -50 0 -49 0 0 -36 0 -36 -34 29 -35 28 0 92 c-1 64 3 93 12 96 6 3 110 6
229 6 l217 1 3 -233z m-423 -38 c35 -37 61 -106 61 -166 l0 -43 -50 0 -50 0 0
120 c0 66 2 120 5 120 3 0 18 -14 34 -31z"/>
</g>
</svg>
